<svg xmlns="http://www.w3.org/2000/svg" xmlns:xlink="http://www.w3.org/1999/xlink" width="500" zoomAndPan="magnify" viewBox="0 0 375 374.999991" height="500" preserveAspectRatio="xMidYMid meet" version="1.0"><defs><g/></defs><rect x="-37.5" width="450" fill="#ffffff" y="-37.499999" height="449.999989" fill-opacity="1"/><rect x="-37.5" width="450" fill="#ffffff" y="-37.499999" height="449.999989" fill-opacity="1"/><g fill="#5ce1e6" fill-opacity="1"><g transform="translate(134.024, 314.626788)"><g><path d="M 217.109375 6.203125 C 202.730469 17.480469 188.066406 22.558594 173.40625 20.863281 C 158.460938 19.171875 148.875 12.40625 144.363281 0.5625 C 169.175781 -4.511719 189.761719 -16.917969 206.113281 -36.9375 C 222.46875 -56.675781 230.925781 -79.796875 230.925781 -105.734375 C 230.925781 -135.625 220.210938 -161.28125 199.066406 -182.429688 C 177.917969 -203.574219 152.257812 -214.289062 122.371094 -214.289062 C 92.203125 -214.289062 66.542969 -203.574219 45.394531 -182.429688 C 24.25 -161.28125 13.816406 -135.625 13.816406 -105.734375 C 13.816406 -78.949219 22.273438 -55.546875 39.757812 -35.246094 C 56.957031 -14.945312 78.667969 -2.820312 104.609375 1.410156 C 106.582031 14.945312 112.21875 26.222656 121.523438 35.808594 C 130.546875 45.394531 141.542969 52.164062 153.949219 56.109375 C 166.355469 60.058594 179.890625 60.621094 195.117188 57.800781 C 210.34375 55.265625 224.441406 49.0625 237.695312 39.191406 Z M 56.957031 -105.734375 C 56.957031 -124.0625 63.160156 -139.570312 75.847656 -152.257812 C 88.253906 -164.664062 103.761719 -171.152344 122.371094 -171.152344 C 140.699219 -171.152344 156.207031 -164.664062 168.894531 -152.257812 C 181.300781 -139.570312 187.785156 -124.0625 187.785156 -105.734375 C 187.785156 -87.125 181.300781 -71.617188 168.894531 -59.210938 C 156.207031 -46.523438 140.699219 -40.320312 122.371094 -40.320312 C 103.761719 -40.320312 88.253906 -46.523438 75.847656 -59.210938 C 63.160156 -71.617188 56.957031 -87.125 56.957031 -105.734375 Z M 56.957031 -105.734375 "/></g></g></g><path stroke-linecap="butt" transform="matrix(1.471307, 0, 0, 1.471307, 19.997409, 47.653194)" fill="none" stroke-linejoin="miter" d="M 217.612218 178.210396 C 207.834031 185.883206 197.869997 189.345263 187.903309 188.177084 C 177.750774 187.05404 171.246142 182.421149 168.158433 174.373991 C 185.049236 170.911934 199.038176 162.490427 210.127909 148.875835 C 221.262776 135.494879 227.018711 119.77491 227.018711 102.135412 C 227.018711 81.830341 219.717594 64.376689 205.354306 50.013401 C 190.991017 35.650112 173.54002 28.35165 153.23495 28.35165 C 132.693589 28.35165 115.290381 35.650112 100.879304 50.013401 C 86.516015 64.376689 79.451189 81.830341 79.451189 102.135412 C 79.451189 120.335105 85.207124 136.243575 97.090688 150.044014 C 108.740615 163.847108 123.523386 172.082768 141.162885 174.936841 C 142.474431 184.152178 146.310836 191.824988 152.626966 198.32962 C 158.754594 204.831596 166.241558 209.464487 174.663065 212.132713 C 183.13236 214.798285 192.302563 215.220422 202.640945 213.300892 C 213.027116 211.569863 222.571667 207.35911 231.603813 200.620843 Z M 108.740615 102.135412 C 108.740615 89.688998 112.996503 79.116981 121.606511 70.506973 C 130.028018 62.085466 140.554901 57.686211 153.23495 57.686211 C 165.678708 57.686211 176.205592 62.085466 184.8156 70.506973 C 193.284896 79.116981 197.681496 89.688998 197.681496 102.135412 C 197.681496 114.767671 193.284896 125.342344 184.8156 133.763851 C 176.205592 142.371204 165.678708 146.581957 153.23495 146.581957 C 140.554901 146.581957 130.028018 142.371204 121.606511 133.763851 C 112.996503 125.342344 108.740615 114.767671 108.740615 102.135412 Z M 108.740615 102.135412 " stroke="#004aad" stroke-width="7.186751" stroke-opacity="1" stroke-miterlimit="4"/><g fill="#5ce1e6" fill-opacity="1"><g transform="translate(21.369321, 263.992292)"><g><path d="M 189.851562 0 L 243.238281 0 L 148.152344 -236.917969 L 92.871094 -236.917969 L -2.210938 0 L 51.175781 0 L 68.234375 -45.804688 L 172.792969 -45.804688 Z M 83.710938 -87.1875 L 120.671875 -186.375 L 157.628906 -87.1875 Z M 83.710938 -87.1875 "/></g></g></g><path stroke-linecap="butt" transform="matrix(1.648365, 0, 0, 1.648365, -123.12047, -35.108988)" fill="none" stroke-linejoin="miter" d="M 195.392103 174.00031 L 227.770304 174.00031 L 170.080563 30.268869 L 136.534063 30.268869 L 78.846692 174.00031 L 111.269919 174.00031 L 121.609236 146.207619 L 185.052785 146.207619 Z M 130.967468 121.130686 L 153.425802 60.914767 L 175.83674 121.130686 Z M 130.967468 121.130686 " stroke="#004aad" stroke-width="7.186751" stroke-opacity="1" stroke-miterlimit="4"/></svg>